<svg width="1936" height="1306" viewBox="0 0 1936 1306" fill="none" xmlns="http://www.w3.org/2000/svg">
<rect width="1936" height="1306" fill="white"/>
<g opacity="0.5" filter="url(#filter0_d_2114_26958)">
<path d="M1202 1120C1543.31 1120 1820 1094.48 1820 1063C1820 1031.52 1543.31 1006 1202 1006C860.688 1006 584 1031.52 584 1063C584 1094.48 860.688 1120 1202 1120Z" fill="url(#paint0_linear_2114_26958)"/>
</g>
<path d="M1592.74 415L1725 757.867L1721.36 760.785L1592.55 426.315L1392.42 714.146L1387.24 706.773L1592.74 415Z" fill="#1D2736"/>
<path d="M1387.24 706.773L1592.74 415L975.472 539.504L746 744.511L1387.24 706.773Z" fill="#2E4460"/>
<path d="M746 744.511L1387.24 706.773L1392.42 714.146L753.175 750.827L746 744.511Z" fill="#7F849C"/>
<path d="M1376.87 715.039V1066.79L1664.17 1021.1V724.717L1568.31 461.184L1392.42 714.146L1376.87 715.039Z" fill="white"/>
<path d="M773.86 749.643L1376.87 715.039V1066.79L773.86 1035.43V749.643Z" fill="#E7ECF3"/>
<path d="M1664.17 724.718V760.787H1677.3H1721.36L1592.55 426.316L1568.31 461.185L1664.17 724.718Z" fill="#C3D0E3"/>
<path d="M782.115 1036.12V1056.63L1371.99 1090V1066.37L782.115 1036.12Z" fill="#7F849C"/>
<path d="M1659.57 1021.83V1036.45L1371.99 1090V1066.37L1376.87 1066.79L1659.57 1021.83Z" fill="#C3D0E3"/>
<path d="M1487.46 596.832L1543.54 612.933V760.783H1487.46V596.832Z" fill="#191D23"/>
<path d="M1615.26 633.456L1570.66 620.648V760.786H1615.26V633.456Z" fill="#191D23"/>
<path d="M1487.46 1048.94V819.195H1548.32V1039.27L1487.46 1048.94Z" fill="#191D23"/>
<path d="M1612.98 1029.2V819.195H1572.51V1035.64L1612.98 1029.2Z" fill="#191D23"/>
<path opacity="0.3" d="M1487.46 596.832L1543.54 612.933V696.098L1487.46 646.821V596.832Z" fill="white"/>
<path opacity="0.3" d="M1615.26 633.456L1570.66 620.648V710.949L1615.26 750.828V633.456Z" fill="white"/>
<path opacity="0.3" d="M1487.46 914.206V819.195H1548.32V965.416L1487.46 914.206Z" fill="white"/>
<path opacity="0.3" d="M1612.98 998.359V819.195H1572.51V966.221L1612.98 998.359Z" fill="white"/>
<path d="M1543.54 612.935L1533.74 610.125V760.785H1543.54V612.935Z" fill="#7F849C"/>
<path d="M1615.26 633.455L1608.16 631.418V760.785H1615.26V633.455Z" fill="#7F849C"/>
<path d="M1548.32 819.195H1533.75V1041.82L1548.32 1039.51V819.195Z" fill="#7F849C"/>
<path d="M1612.98 819.195H1600.45V1031.25L1612.98 1029.26V819.195Z" fill="#7F849C"/>
<path d="M1487.46 596.832L1543.54 612.933H1533.74L1487.46 603.56V596.832Z" fill="#1D2736"/>
<path d="M1570.66 620.648L1615.26 633.456H1608.16L1570.66 625.451V620.648Z" fill="#1D2736"/>
<path d="M885 943V849.306H953V762" stroke="#2400A7" stroke-width="4" stroke-dasharray="10 10"/>
<path d="M907.399 960.102L902.752 960.354V921L907.49 921.79C907.639 921.82 907.774 921.899 907.87 922.012C907.967 922.126 908.019 922.268 908.019 922.414V959.466C908.018 959.627 907.954 959.781 907.839 959.899C907.725 960.017 907.568 960.089 907.399 960.102Z" fill="#F4F4F4"/>
<path d="M902.658 960.349H867.555C867.467 960.349 867.38 960.333 867.299 960.301C867.218 960.27 867.144 960.223 867.081 960.164C867.019 960.105 866.97 960.034 866.936 959.957C866.902 959.88 866.885 959.797 866.885 959.713V922.858C866.885 922.693 866.952 922.535 867.072 922.416C867.192 922.297 867.356 922.228 867.529 922.222L902.634 920.985C902.724 920.982 902.814 920.996 902.898 921.027C902.982 921.057 903.059 921.104 903.123 921.164C903.188 921.223 903.24 921.295 903.275 921.374C903.31 921.453 903.328 921.538 903.328 921.623V959.71C903.328 959.794 903.311 959.878 903.278 959.955C903.244 960.033 903.195 960.103 903.133 960.163C903.07 960.222 902.996 960.269 902.915 960.301C902.833 960.333 902.746 960.349 902.658 960.349Z" fill="white"/>
<ellipse cx="953.5" cy="761" rx="9.5" ry="9" fill="#140075"/>
<path d="M586 309.003C586 309.003 691.227 431.137 751 467.002C810.773 502.866 935.5 532.501 935.5 532.501" stroke="#E8EDF4" stroke-width="7" stroke-linecap="round"/>
<path fill-rule="evenodd" clip-rule="evenodd" d="M345.372 737.498C425.713 737.498 490.842 742.312 490.842 748.251C490.842 754.19 425.713 759.004 345.372 759.004V737.498Z" fill="#90BDFF"/>
<path fill-rule="evenodd" clip-rule="evenodd" d="M345.368 758.998C265.027 758.998 199.898 754.184 199.898 748.245C199.898 742.307 265.027 737.492 345.368 737.492L345.368 758.998Z" fill="#90BDFF"/>
<path fill-rule="evenodd" clip-rule="evenodd" d="M351.632 85.1367H354.786L390.049 120.58L391.308 124.378L392.568 137.036L591.554 191.467L596.591 197.797V207.924L590.294 214.253H396.346L397.605 240.836L591.554 295.267L596.591 301.596V311.723L590.294 318.052H401.384L422.794 744.641H405.034L351.632 596.695V549.948L393.827 442.105L351.632 383.942V358.439L381.233 316.786H351.632V304.128H376.196L351.632 286.493V268.204L372.417 252.228H351.632V239.57H378.714L351.632 204.065V179.282L374.936 149.695H351.632V138.302H379.974V131.973H351.632V119.314H369.899L351.632 100.955V85.1367ZM357.305 191.467L379.974 161.087L383.752 225.645L357.305 191.467ZM386.271 297.798L359.823 277.545L385.011 258.557L386.271 297.798ZM483.245 201.594V176.277L576.441 201.594H483.245ZM470.651 172.48V201.594H395.087L392.568 150.961L470.651 172.48ZM483.245 304.128V277.545L577.7 304.128H483.245ZM470.651 275.013V304.128V305.393H400.124L397.605 254.76L470.651 275.013ZM357.305 371.217L388.79 328.179L393.827 420.585L357.305 371.217ZM396.346 471.219L407.681 705.4L357.305 572.487L396.346 471.219Z" fill="#C3D0E3"/>
<path fill-rule="evenodd" clip-rule="evenodd" d="M351.632 77.5977H354.786L390.049 113.446L391.308 117.287L392.568 130.09L591.554 185.144L596.591 191.545V201.788L590.294 208.189H396.346L397.605 235.076L591.554 290.129L596.591 296.531V306.773L590.294 313.175H401.384L422.794 744.639H405.034L351.632 595.002V547.722L393.827 438.645L351.632 379.817V354.023L381.233 311.895H351.632V299.091H376.196L351.632 281.255V262.757L372.417 246.599H351.632V233.796H378.714L351.632 197.885V172.819L374.936 142.893H351.632V131.371H379.974V124.969H351.632V112.166H369.899L351.632 93.5966V77.5977ZM357.305 185.144L379.974 154.416L383.752 219.712L357.305 185.144ZM386.271 292.69L359.823 272.205L385.011 253L386.271 292.69ZM483.245 195.386V169.78L576.441 195.386H483.245ZM470.651 165.939V195.386H395.087L392.568 144.174L470.651 165.939ZM483.245 299.091V272.205L577.7 299.091H483.245ZM470.651 269.644V299.091V300.372H400.124L397.605 249.159L470.651 269.644ZM357.305 366.948L388.79 323.417L393.827 416.88L357.305 366.948ZM396.346 468.092L407.681 704.95L357.305 570.517L396.346 468.092Z" fill="#E7EDF5"/>
<path fill-rule="evenodd" clip-rule="evenodd" d="M351.959 84.5391H348.805L313.542 119.983L312.283 123.78L311.023 136.439L112.038 190.87L107 197.199V207.326L113.297 213.655H307.245L305.986 240.238L112.038 294.669L107 300.998V311.125L113.297 317.454H302.208L280.798 744.043H298.557L351.959 596.097V549.351L309.764 441.507L351.959 383.344V357.841L322.358 316.188H351.959V303.53H327.396L351.959 285.895V267.606L331.174 251.63H351.959V238.972H324.877L351.959 203.467V178.684L328.655 149.097H351.959V137.704H323.617V131.375H351.959V118.717H333.693L351.959 100.357V84.5391ZM346.287 190.87L323.617 160.49L319.839 225.048L346.287 190.87ZM317.32 297.201L343.768 276.947L318.58 257.96L317.32 297.201ZM220.346 200.997V175.68L127.151 200.997H220.346ZM232.94 171.882V200.997H308.505L311.023 150.363L232.94 171.882ZM220.346 303.53V276.947L125.891 303.53H220.346ZM232.94 274.416V303.53V304.796H303.467L305.986 254.162L232.94 274.416ZM346.287 370.62L314.802 327.581L309.764 419.988L346.287 370.62ZM307.245 470.621L295.911 704.802L346.287 571.889L307.245 470.621Z" fill="#C3D0E3"/>
<path fill-rule="evenodd" clip-rule="evenodd" d="M351.959 77H348.805L313.542 112.849L312.283 116.69L311.023 129.493L112.038 184.546L107 190.948V201.19L113.297 207.592H307.245L305.986 234.478L112.038 289.531L107 295.933V306.176L113.297 312.577H302.208L280.798 744.042H298.557L351.959 594.404V547.124L309.764 438.048L351.959 379.22V353.426L322.358 311.297H351.959V298.494H327.396L351.959 280.657V262.159L331.174 246.001H351.959V233.198H324.877L351.959 197.287V172.221L328.655 142.296H351.959V130.773H323.617V124.371H351.959V111.568H333.693L351.959 92.9989V77ZM346.287 184.546L323.617 153.819L319.839 219.114L346.287 184.546ZM317.32 292.092L343.768 271.607L318.58 252.403L317.32 292.092ZM220.346 194.789V169.182L127.151 194.789H220.346ZM232.94 165.341V194.789H308.505L311.023 143.576L232.94 165.341ZM220.346 298.494V271.607L125.891 298.494H220.346ZM232.94 269.047V298.494V299.774H303.467L305.986 248.562L232.94 269.047ZM346.287 366.35L314.802 322.82L309.764 416.282L346.287 366.35ZM307.245 467.495L295.911 704.352L346.287 569.92L307.245 467.495Z" fill="#E7EDF5"/>
<path d="M965.691 541.239L1582 418L1377.29 708.997L736 747L965.691 541.239Z" fill="#454E58"/>
<path d="M953 762V762C943.059 762 935 753.941 935 744V533" stroke="black" stroke-width="5" stroke-linecap="round"/>
<path d="M877.667 941C877.667 943.946 880.054 946.333 883 946.333C885.946 946.333 888.333 943.946 888.333 941C888.333 938.054 885.946 935.667 883 935.667C880.054 935.667 877.667 938.054 877.667 941ZM580.824 994.016C580.28 994.113 579.918 994.632 580.016 995.176C580.113 995.72 580.632 996.082 581.176 995.984L580.824 994.016ZM882.824 940.016L580.824 994.016L581.176 995.984L883.176 941.984L882.824 940.016Z" fill="black"/>
<path d="M354.837 985.596V1004H351.169V990.105L346.621 1002.23H342.743L338.195 990.21V1004H334.527V985.596H339.904L344.689 998.019L349.461 985.596H354.837ZM371.272 991.262V1004H367.92V1002.59C367.092 1003.62 365.857 1004.33 364.108 1004.33C360.598 1004.33 357.943 1001.45 357.943 997.624C357.943 993.799 360.598 990.92 364.108 990.92C365.857 990.92 367.079 991.63 367.92 992.669V991.262H371.272ZM364.739 994.115C362.728 994.115 361.453 995.679 361.453 997.624C361.453 999.57 362.728 1001.13 364.739 1001.13C366.698 1001.13 368.026 999.636 368.026 997.624C368.026 995.613 366.698 994.115 364.739 994.115ZM378.312 991.262V1004H374.881V991.262H378.312ZM376.577 984.887C377.813 984.887 378.772 985.859 378.772 987.095C378.772 988.331 377.813 989.277 376.577 989.277C375.341 989.277 374.395 988.331 374.395 987.095C374.395 985.859 375.341 984.887 376.577 984.887ZM389.001 990.92C391.893 990.92 393.957 992.932 393.957 995.889V1004H390.526V996.994C390.526 995.153 389.606 994.141 388.042 994.141C386.569 994.141 385.347 995.101 385.347 997.02V1004H381.916V991.262H385.255V992.761C386.162 991.407 387.555 990.92 389.001 990.92ZM418.457 987.24L416.722 990.237C415.276 989.343 413.515 988.672 411.503 988.672C409.44 988.672 407.98 989.487 407.98 990.881C407.98 992.235 409.571 992.642 411.779 993.01L412.818 993.181C416.104 993.72 418.681 995.127 418.681 998.334C418.681 1002.4 415.105 1004.33 411.148 1004.33C408.362 1004.33 405.364 1003.51 403.393 1001.92L405.299 998.965C406.626 1000.03 408.795 1000.95 411.162 1000.95C413.199 1000.95 414.777 1000.15 414.777 998.729C414.777 997.454 413.436 996.98 410.872 996.573L409.702 996.389C406.456 995.876 404.089 994.443 404.089 991.118C404.089 987.279 407.507 985.281 411.424 985.281C414.001 985.281 416.144 985.859 418.457 987.24ZM432.903 991.262L435.795 1000.2L438.529 991.262H442.118L437.806 1004H433.889L431.063 995.39L428.263 1004H424.372L420.06 991.262H423.715L426.436 1000.16L429.288 991.262H432.903ZM447.711 991.262V1004H444.28V991.262H447.711ZM445.975 984.887C447.211 984.887 448.171 985.859 448.171 987.095C448.171 988.331 447.211 989.277 445.975 989.277C444.74 989.277 443.793 988.331 443.793 987.095C443.793 985.859 444.74 984.887 445.975 984.887ZM460.556 991.262V994.312H455.942V998.965C455.942 1000.56 456.783 1001.13 457.848 1001.13C458.663 1001.13 459.543 1000.73 460.24 1000.31L461.502 1002.99C460.385 1003.75 459.096 1004.33 457.282 1004.33C454.128 1004.33 452.511 1002.54 452.511 999.241V994.312H450.052V991.262H452.511V987.476H455.942V991.262H460.556ZM469.427 990.92C471.557 990.92 473.358 991.788 474.528 993.326L472.056 995.39C471.281 994.562 470.452 994.115 469.335 994.115C467.56 994.115 466.141 995.508 466.141 997.624C466.141 999.754 467.547 1001.13 469.322 1001.13C470.426 1001.13 471.373 1000.63 472.096 999.846L474.541 1001.94C473.344 1003.47 471.557 1004.33 469.427 1004.33C465.365 1004.33 462.644 1001.49 462.644 997.624C462.644 993.773 465.365 990.92 469.427 990.92ZM480.446 985.057V992.629C481.353 991.367 482.707 990.92 484.1 990.92C486.992 990.92 489.056 992.932 489.056 995.889V1004H485.625V996.994C485.625 995.153 484.705 994.141 483.14 994.141C481.668 994.141 480.446 995.101 480.446 997.02V1004H477.015V985.057H480.446ZM499.699 990.92C503.222 990.92 505.877 993.799 505.877 997.624C505.877 1001.45 503.222 1004.33 499.712 1004.33C497.951 1004.33 496.728 1003.62 495.9 1002.59V1004H492.548V985.071H495.966V992.59C496.794 991.591 497.99 990.92 499.699 990.92ZM499.068 994.115C497.122 994.115 495.795 995.613 495.795 997.624C495.795 999.636 497.122 1001.13 499.068 1001.13C501.092 1001.13 502.354 999.57 502.354 997.624C502.354 995.679 501.092 994.115 499.068 994.115ZM514.758 990.92C518.728 990.92 521.659 993.786 521.659 997.624C521.659 1001.46 518.728 1004.33 514.758 1004.33C510.801 1004.33 507.883 1001.46 507.883 997.624C507.883 993.786 510.801 990.92 514.758 990.92ZM514.758 994.115C512.825 994.115 511.379 995.561 511.379 997.624C511.379 999.688 512.825 1001.13 514.758 1001.13C516.69 1001.13 518.149 999.688 518.149 997.624C518.149 995.561 516.69 994.115 514.758 994.115ZM537.002 991.262V1004H533.65V1002.59C532.822 1003.62 531.586 1004.33 529.838 1004.33C526.328 1004.33 523.673 1001.45 523.673 997.624C523.673 993.799 526.328 990.92 529.838 990.92C531.586 990.92 532.809 991.63 533.65 992.669V991.262H537.002ZM530.469 994.115C528.458 994.115 527.182 995.679 527.182 997.624C527.182 999.57 528.458 1001.13 530.469 1001.13C532.427 1001.13 533.755 999.636 533.755 997.624C533.755 995.613 532.427 994.115 530.469 994.115ZM547.525 990.92C548.261 990.92 548.84 991.025 549.313 991.196L548.8 994.601C548.235 994.351 547.42 994.194 546.723 994.194C545.133 994.194 544.042 995.166 544.042 997.059V1004H540.611V991.262H543.936V992.656C544.738 991.459 545.961 990.92 547.525 990.92ZM556.591 990.92C558.3 990.92 559.509 991.591 560.337 992.59V985.071H563.755V1004H560.403V1002.59C559.575 1003.62 558.339 1004.33 556.591 1004.33C553.081 1004.33 550.426 1001.45 550.426 997.624C550.426 993.799 553.081 990.92 556.591 990.92ZM557.222 994.115C555.211 994.115 553.935 995.679 553.935 997.624C553.935 999.57 555.211 1001.13 557.222 1001.13C559.18 1001.13 560.508 999.636 560.508 997.624C560.508 995.613 559.18 994.115 557.222 994.115Z" fill="black"/>
<path d="M735.724 453.606C733.895 451.298 730.54 450.91 728.232 452.74C725.924 454.569 725.536 457.924 727.365 460.232C729.195 462.54 732.55 462.928 734.858 461.099C737.166 459.269 737.554 455.914 735.724 453.606ZM935.412 227.661C935.778 227.247 935.739 226.615 935.325 226.25C934.911 225.884 934.279 225.923 933.913 226.337L935.412 227.661ZM732.294 457.581L935.412 227.661L933.913 226.337L730.795 456.257L732.294 457.581Z" fill="black"/>
<path d="M793.153 196.255C796.544 196.255 799.541 197.806 801.04 200.382L797.885 202.315C796.847 200.724 795.177 199.778 793.126 199.778C789.788 199.778 787.316 202.223 787.316 205.798C787.329 209.492 789.88 211.819 793.126 211.819C795.164 211.819 796.82 210.899 797.925 209.295L800.922 211.451C799.292 213.843 796.518 215.342 793.153 215.342C787.487 215.342 783.491 211.332 783.491 205.798C783.491 200.264 787.487 196.255 793.153 196.255ZM809.681 201.92C813.651 201.92 816.583 204.786 816.583 208.624C816.583 212.463 813.651 215.329 809.681 215.329C805.725 215.329 802.806 212.463 802.806 208.624C802.806 204.786 805.725 201.92 809.681 201.92ZM809.681 205.115C807.749 205.115 806.303 206.561 806.303 208.624C806.303 210.688 807.749 212.134 809.681 212.134C811.614 212.134 813.073 210.688 813.073 208.624C813.073 206.561 811.614 205.115 809.681 205.115ZM826.47 201.92C829.362 201.92 831.426 203.932 831.426 206.889V215H827.995V207.994C827.995 206.153 827.075 205.141 825.511 205.141C824.039 205.141 822.816 206.101 822.816 208.02V215H819.385V202.262H822.724V203.761C823.631 202.407 825.024 201.92 826.47 201.92ZM842.004 201.92C844.896 201.92 846.959 203.932 846.959 206.889V215H843.528V207.994C843.528 206.153 842.608 205.141 841.044 205.141C839.572 205.141 838.349 206.101 838.349 208.02V215H834.918V202.262H838.257V203.761C839.164 202.407 840.558 201.92 842.004 201.92ZM856.104 201.92C859.771 201.92 862.282 204.641 862.295 208.611C862.295 209.006 862.269 209.479 862.23 209.768H853.199C853.567 211.608 854.855 212.41 856.472 212.41C857.576 212.41 858.772 211.963 859.693 211.188L861.704 213.396C860.258 214.724 858.417 215.329 856.275 215.329C852.371 215.329 849.663 212.673 849.663 208.664C849.663 204.655 852.292 201.92 856.104 201.92ZM856.078 204.878C854.461 204.878 853.514 205.851 853.212 207.428H858.851C858.536 205.798 857.55 204.878 856.078 204.878ZM871.08 201.92C873.21 201.92 875.011 202.788 876.181 204.326L873.709 206.39C872.934 205.562 872.105 205.115 870.988 205.115C869.214 205.115 867.794 206.508 867.794 208.624C867.794 210.754 869.2 212.134 870.975 212.134C872.079 212.134 873.026 211.635 873.749 210.846L876.194 212.936C874.997 214.474 873.21 215.329 871.08 215.329C867.018 215.329 864.297 212.489 864.297 208.624C864.297 204.773 867.018 201.92 871.08 201.92ZM888.037 202.262V205.312H883.423V209.965C883.423 211.556 884.265 212.134 885.329 212.134C886.144 212.134 887.025 211.727 887.722 211.306L888.984 213.988C887.866 214.75 886.578 215.329 884.764 215.329C881.609 215.329 879.992 213.541 879.992 210.241V205.312H877.534V202.262H879.992V198.476H883.423V202.262H888.037ZM894.5 202.262V215H891.069V202.262H894.5ZM892.764 195.887C894 195.887 894.96 196.859 894.96 198.095C894.96 199.331 894 200.277 892.764 200.277C891.529 200.277 890.582 199.331 890.582 198.095C890.582 196.859 891.529 195.887 892.764 195.887ZM904.19 201.92C908.16 201.92 911.091 204.786 911.091 208.624C911.091 212.463 908.16 215.329 904.19 215.329C900.233 215.329 897.315 212.463 897.315 208.624C897.315 204.786 900.233 201.92 904.19 201.92ZM904.19 205.115C902.257 205.115 900.811 206.561 900.811 208.624C900.811 210.688 902.257 212.134 904.19 212.134C906.122 212.134 907.581 210.688 907.581 208.624C907.581 206.561 906.122 205.115 904.19 205.115ZM920.979 201.92C923.871 201.92 925.934 203.932 925.934 206.889V215H922.504V207.994C922.504 206.153 921.583 205.141 920.019 205.141C918.547 205.141 917.324 206.101 917.324 208.02V215H913.893V202.262H917.232V203.761C918.139 202.407 919.533 201.92 920.979 201.92ZM946.215 203.143L945.058 205.811C944.046 205.312 942.429 204.786 940.996 204.773C939.695 204.773 939.038 205.233 939.038 205.93C939.038 206.666 939.958 206.85 941.115 207.021L942.245 207.192C945.006 207.612 946.544 208.848 946.544 211.004C946.544 213.633 944.388 215.329 940.694 215.329C938.959 215.329 936.685 215 935.028 213.83L936.382 211.227C937.473 211.95 938.801 212.476 940.72 212.476C942.311 212.476 943.073 212.029 943.073 211.28C943.073 210.662 942.429 210.32 940.957 210.11L939.918 209.965C936.974 209.558 935.515 208.27 935.515 206.101C935.515 203.485 937.539 201.933 940.891 201.933C942.929 201.933 944.519 202.315 946.215 203.143ZM954.848 201.92C958.516 201.92 961.027 204.641 961.04 208.611C961.04 209.006 961.014 209.479 960.974 209.768H951.943C952.311 211.608 953.6 212.41 955.216 212.41C956.321 212.41 957.517 211.963 958.437 211.188L960.448 213.396C959.002 214.724 957.162 215.329 955.019 215.329C951.115 215.329 948.407 212.673 948.407 208.664C948.407 204.655 951.036 201.92 954.848 201.92ZM954.822 204.878C953.205 204.878 952.259 205.851 951.956 207.428H957.596C957.28 205.798 956.294 204.878 954.822 204.878ZM970.745 201.92C971.481 201.92 972.059 202.025 972.533 202.196L972.02 205.601C971.455 205.351 970.64 205.194 969.943 205.194C968.352 205.194 967.261 206.166 967.261 208.059V215H963.83V202.262H967.156V203.656C967.958 202.459 969.181 201.92 970.745 201.92ZM987.716 202.262L982.734 215H978.777L973.743 202.262H977.476L980.775 211.385L984.101 202.262H987.716ZM993.193 202.262V215H989.762V202.262H993.193ZM991.457 195.887C992.693 195.887 993.653 196.859 993.653 198.095C993.653 199.331 992.693 200.277 991.457 200.277C990.222 200.277 989.275 199.331 989.275 198.095C989.275 196.859 990.222 195.887 991.457 195.887ZM1002.79 201.92C1004.92 201.92 1006.72 202.788 1007.89 204.326L1005.42 206.39C1004.64 205.562 1003.82 205.115 1002.7 205.115C1000.92 205.115 999.505 206.508 999.505 208.624C999.505 210.754 1000.91 212.134 1002.69 212.134C1003.79 212.134 1004.74 211.635 1005.46 210.846L1007.9 212.936C1006.71 214.474 1004.92 215.329 1002.79 215.329C998.729 215.329 996.008 212.489 996.008 208.624C996.008 204.773 998.729 201.92 1002.79 201.92ZM1015.77 201.92C1019.44 201.92 1021.95 204.641 1021.97 208.611C1021.97 209.006 1021.94 209.479 1021.9 209.768H1012.87C1013.24 211.608 1014.53 212.41 1016.14 212.41C1017.25 212.41 1018.44 211.963 1019.36 211.188L1021.37 213.396C1019.93 214.724 1018.09 215.329 1015.95 215.329C1012.04 215.329 1009.33 212.673 1009.33 208.664C1009.33 204.655 1011.96 201.92 1015.77 201.92ZM1015.75 204.878C1014.13 204.878 1013.18 205.851 1012.88 207.428H1018.52C1018.21 205.798 1017.22 204.878 1015.75 204.878ZM1037.25 201.92C1039.38 201.92 1041.18 202.788 1042.35 204.326L1039.88 206.39C1039.1 205.562 1038.27 205.115 1037.15 205.115C1035.38 205.115 1033.96 206.508 1033.96 208.624C1033.96 210.754 1035.37 212.134 1037.14 212.134C1038.25 212.134 1039.19 211.635 1039.91 210.846L1042.36 212.936C1041.16 214.474 1039.38 215.329 1037.25 215.329C1033.18 215.329 1030.46 212.489 1030.46 208.624C1030.46 204.773 1033.18 201.92 1037.25 201.92ZM1057.12 202.262V215H1053.77V213.593C1052.94 214.619 1051.7 215.329 1049.95 215.329C1046.44 215.329 1043.79 212.45 1043.79 208.624C1043.79 204.799 1046.44 201.92 1049.95 201.92C1051.7 201.92 1052.92 202.63 1053.77 203.669V202.262H1057.12ZM1050.58 205.115C1048.57 205.115 1047.3 206.679 1047.3 208.624C1047.3 210.57 1048.57 212.134 1050.58 212.134C1052.54 212.134 1053.87 210.636 1053.87 208.624C1053.87 206.613 1052.54 205.115 1050.58 205.115ZM1067.88 201.92C1071.4 201.92 1074.06 204.799 1074.06 208.624C1074.06 212.45 1071.4 215.329 1067.89 215.329C1066.13 215.329 1064.91 214.619 1064.08 213.593V215H1060.73V196.071H1064.14V203.59C1064.97 202.591 1066.17 201.92 1067.88 201.92ZM1067.25 205.115C1065.3 205.115 1063.97 206.613 1063.97 208.624C1063.97 210.636 1065.3 212.134 1067.25 212.134C1069.27 212.134 1070.53 210.57 1070.53 208.624C1070.53 206.679 1069.27 205.115 1067.25 205.115ZM1080.28 196.071V215H1076.85V196.071H1080.28ZM1089.54 201.92C1093.2 201.92 1095.72 204.641 1095.73 208.611C1095.73 209.006 1095.7 209.479 1095.66 209.768H1086.63C1087 211.608 1088.29 212.41 1089.91 212.41C1091.01 212.41 1092.21 211.963 1093.13 211.188L1095.14 213.396C1093.69 214.724 1091.85 215.329 1089.71 215.329C1085.8 215.329 1083.1 212.673 1083.1 208.664C1083.1 204.655 1085.73 201.92 1089.54 201.92ZM1089.51 204.878C1087.89 204.878 1086.95 205.851 1086.65 207.428H1092.28C1091.97 205.798 1090.98 204.878 1089.51 204.878Z" fill="black"/>
<path d="M880.667 850C880.667 852.946 883.054 855.333 886 855.333C888.946 855.333 891.333 852.946 891.333 850C891.333 847.054 888.946 844.667 886 844.667C883.054 844.667 880.667 847.054 880.667 850ZM694 849C693.448 849 693 849.448 693 850C693 850.552 693.448 851 694 851V849ZM886 849H694V851H886V849Z" fill="black"/>
<path d="M483.094 837.255C486.485 837.255 489.482 838.806 490.981 841.382L487.826 843.315C486.788 841.724 485.118 840.778 483.068 840.778C479.729 840.778 477.257 843.223 477.257 846.798C477.27 850.492 479.821 852.819 483.068 852.819C485.105 852.819 486.761 851.899 487.866 850.295L490.863 852.451C489.233 854.843 486.459 856.342 483.094 856.342C477.428 856.342 473.432 852.332 473.432 846.798C473.432 841.264 477.428 837.255 483.094 837.255ZM505.691 843.262V850.571C505.691 854.593 502.851 856.329 499.67 856.329C496.476 856.329 493.636 854.593 493.636 850.571V843.262H497.067V850.269C497.067 852.306 498.185 853.134 499.67 853.134C501.142 853.134 502.273 852.306 502.273 850.269V843.262H505.691ZM519.439 844.143L518.282 846.811C517.27 846.312 515.653 845.786 514.22 845.773C512.919 845.773 512.262 846.233 512.262 846.93C512.262 847.666 513.182 847.85 514.339 848.021L515.469 848.192C518.23 848.612 519.768 849.848 519.768 852.004C519.768 854.633 517.612 856.329 513.918 856.329C512.183 856.329 509.909 856 508.252 854.83L509.606 852.227C510.698 852.95 512.025 853.476 513.944 853.476C515.535 853.476 516.297 853.029 516.297 852.28C516.297 851.662 515.653 851.32 514.181 851.11L513.143 850.965C510.198 850.558 508.739 849.27 508.739 847.101C508.739 844.485 510.763 842.933 514.115 842.933C516.153 842.933 517.743 843.315 519.439 844.143ZM531.61 843.262V846.312H526.996V850.965C526.996 852.556 527.837 853.134 528.902 853.134C529.717 853.134 530.598 852.727 531.295 852.306L532.556 854.988C531.439 855.75 530.151 856.329 528.337 856.329C525.182 856.329 523.565 854.541 523.565 851.241V846.312H521.107V843.262H523.565V839.476H526.996V843.262H531.61ZM540.574 842.92C544.543 842.92 547.475 845.786 547.475 849.624C547.475 853.463 544.543 856.329 540.574 856.329C536.617 856.329 533.698 853.463 533.698 849.624C533.698 845.786 536.617 842.92 540.574 842.92ZM540.574 846.115C538.641 846.115 537.195 847.561 537.195 849.624C537.195 851.688 538.641 853.134 540.574 853.134C542.506 853.134 543.965 851.688 543.965 849.624C543.965 847.561 542.506 846.115 540.574 846.115ZM565.894 842.92C568.891 842.92 570.915 844.932 570.915 847.889V856H567.498V848.994C567.498 847.153 566.564 846.141 565.013 846.141C563.541 846.141 562.318 847.101 562.318 849.02V856H558.887V848.994C558.887 847.153 557.967 846.141 556.403 846.141C554.931 846.141 553.708 847.101 553.708 849.02V856H550.277V843.262H553.616V844.761C554.523 843.407 555.916 842.92 557.362 842.92C559.203 842.92 560.715 843.748 561.569 845.102C562.555 843.486 564.224 842.92 565.894 842.92ZM580.064 842.92C583.731 842.92 586.242 845.641 586.255 849.611C586.255 850.006 586.229 850.479 586.189 850.768H577.159C577.527 852.608 578.815 853.41 580.432 853.41C581.536 853.41 582.732 852.963 583.652 852.188L585.664 854.396C584.218 855.724 582.377 856.329 580.235 856.329C576.33 856.329 573.622 853.673 573.622 849.664C573.622 845.655 576.252 842.92 580.064 842.92ZM580.037 845.878C578.421 845.878 577.474 846.851 577.172 848.428H582.811C582.496 846.798 581.51 845.878 580.037 845.878ZM595.96 842.92C596.696 842.92 597.275 843.025 597.748 843.196L597.235 846.601C596.67 846.351 595.855 846.194 595.158 846.194C593.568 846.194 592.477 847.166 592.477 849.059V856H589.046V843.262H592.372V844.656C593.173 843.459 594.396 842.92 595.96 842.92ZM622.019 842.92C625.016 842.92 627.04 844.932 627.04 847.889V856H623.622V848.994C623.622 847.153 622.689 846.141 621.138 846.141C619.665 846.141 618.443 847.101 618.443 849.02V856H615.012V848.994C615.012 847.153 614.092 846.141 612.528 846.141C611.055 846.141 609.833 847.101 609.833 849.02V856H606.402V843.262H609.741V844.761C610.648 843.407 612.041 842.92 613.487 842.92C615.328 842.92 616.839 843.748 617.694 845.102C618.68 843.486 620.349 842.92 622.019 842.92ZM643.077 843.262V856H639.725V854.593C638.896 855.619 637.661 856.329 635.912 856.329C632.403 856.329 629.747 853.45 629.747 849.624C629.747 845.799 632.403 842.92 635.912 842.92C637.661 842.92 638.883 843.63 639.725 844.669V843.262H643.077ZM636.543 846.115C634.532 846.115 633.257 847.679 633.257 849.624C633.257 851.57 634.532 853.134 636.543 853.134C638.502 853.134 639.83 851.636 639.83 849.624C639.83 847.613 638.502 846.115 636.543 846.115ZM650.116 843.262V856H646.685V843.262H650.116ZM648.381 836.887C649.617 836.887 650.576 837.859 650.576 839.095C650.576 840.331 649.617 841.277 648.381 841.277C647.145 841.277 646.199 840.331 646.199 839.095C646.199 837.859 647.145 836.887 648.381 836.887ZM660.805 842.92C663.697 842.92 665.761 844.932 665.761 847.889V856H662.33V848.994C662.33 847.153 661.41 846.141 659.846 846.141C658.374 846.141 657.151 847.101 657.151 849.02V856H653.72V843.262H657.059V844.761C657.966 843.407 659.359 842.92 660.805 842.92ZM679.546 844.143L678.389 846.811C677.377 846.312 675.76 845.786 674.327 845.773C673.026 845.773 672.369 846.233 672.369 846.93C672.369 847.666 673.289 847.85 674.446 848.021L675.576 848.192C678.337 848.612 679.875 849.848 679.875 852.004C679.875 854.633 677.719 856.329 674.025 856.329C672.29 856.329 670.016 856 668.359 854.83L669.713 852.227C670.804 852.95 672.132 853.476 674.051 853.476C675.642 853.476 676.404 853.029 676.404 852.28C676.404 851.662 675.76 851.32 674.288 851.11L673.249 850.965C670.305 850.558 668.846 849.27 668.846 847.101C668.846 844.485 670.87 842.933 674.222 842.933C676.26 842.933 677.85 843.315 679.546 844.143Z" fill="black"/>
<path d="M940.893 531.915C940.256 529.039 937.408 527.224 934.532 527.862C931.656 528.499 929.842 531.347 930.479 534.223C931.117 537.098 933.965 538.913 936.84 538.276C939.716 537.638 941.531 534.79 940.893 531.915ZM1171.53 385.846C1172 385.552 1172.14 384.935 1171.85 384.467C1171.55 384 1170.93 383.859 1170.47 384.154L1171.53 385.846ZM936.219 533.915L1171.53 385.846L1170.47 384.154L935.154 532.222L936.219 533.915Z" fill="black"/>
<g opacity="0.1">
<ellipse cx="1724.75" cy="206.408" rx="168.749" ry="169.408" fill="#FFC612"/>
<ellipse cx="1724.75" cy="206.408" rx="168.749" ry="169.408" fill="url(#paint1_radial_2114_26958)"/>
</g>
<g opacity="0.2">
<ellipse cx="1724.75" cy="205.82" rx="141.702" ry="141.762" fill="#FFC612"/>
<ellipse cx="1724.75" cy="205.82" rx="141.702" ry="141.762" fill="url(#paint2_radial_2114_26958)"/>
</g>
<g opacity="0.3">
<ellipse cx="1724.75" cy="205.821" rx="114.655" ry="115.88" fill="#FFC612"/>
<ellipse cx="1724.75" cy="205.821" rx="114.655" ry="115.88" fill="url(#paint3_radial_2114_26958)"/>
</g>
<ellipse cx="1725.34" cy="205.232" rx="71.7329" ry="71.7632" fill="#FFC612"/>
<path d="M1193.14 373.255C1196.53 373.255 1199.53 374.806 1201.03 377.382L1197.87 379.315C1196.83 377.724 1195.16 376.778 1193.11 376.778C1189.77 376.778 1187.3 379.223 1187.3 382.798C1187.32 386.492 1189.87 388.819 1193.11 388.819C1195.15 388.819 1196.81 387.899 1197.91 386.295L1200.91 388.451C1199.28 390.843 1196.5 392.342 1193.14 392.342C1187.47 392.342 1183.48 388.332 1183.48 382.798C1183.48 377.264 1187.47 373.255 1193.14 373.255ZM1209.67 378.92C1213.64 378.92 1216.57 381.786 1216.57 385.624C1216.57 389.463 1213.64 392.329 1209.67 392.329C1205.71 392.329 1202.79 389.463 1202.79 385.624C1202.79 381.786 1205.71 378.92 1209.67 378.92ZM1209.67 382.115C1207.73 382.115 1206.29 383.561 1206.29 385.624C1206.29 387.688 1207.73 389.134 1209.67 389.134C1211.6 389.134 1213.06 387.688 1213.06 385.624C1213.06 383.561 1211.6 382.115 1209.67 382.115ZM1226.46 378.92C1229.35 378.92 1231.41 380.932 1231.41 383.889V392H1227.98V384.994C1227.98 383.153 1227.06 382.141 1225.5 382.141C1224.02 382.141 1222.8 383.101 1222.8 385.02V392H1219.37V379.262H1222.71V380.761C1223.62 379.407 1225.01 378.92 1226.46 378.92ZM1241.99 378.92C1244.88 378.92 1246.95 380.932 1246.95 383.889V392H1243.51V384.994C1243.51 383.153 1242.59 382.141 1241.03 382.141C1239.56 382.141 1238.33 383.101 1238.33 385.02V392H1234.9V379.262H1238.24V380.761C1239.15 379.407 1240.54 378.92 1241.99 378.92ZM1256.09 378.92C1259.76 378.92 1262.27 381.641 1262.28 385.611C1262.28 386.006 1262.25 386.479 1262.22 386.768H1253.18C1253.55 388.608 1254.84 389.41 1256.46 389.41C1257.56 389.41 1258.76 388.963 1259.68 388.188L1261.69 390.396C1260.24 391.724 1258.4 392.329 1256.26 392.329C1252.36 392.329 1249.65 389.673 1249.65 385.664C1249.65 381.655 1252.28 378.92 1256.09 378.92ZM1256.06 381.878C1254.45 381.878 1253.5 382.851 1253.2 384.428H1258.84C1258.52 382.798 1257.54 381.878 1256.06 381.878ZM1271.07 378.92C1273.2 378.92 1275 379.788 1276.17 381.326L1273.7 383.39C1272.92 382.562 1272.09 382.115 1270.97 382.115C1269.2 382.115 1267.78 383.508 1267.78 385.624C1267.78 387.754 1269.19 389.134 1270.96 389.134C1272.07 389.134 1273.01 388.635 1273.73 387.846L1276.18 389.936C1274.98 391.474 1273.2 392.329 1271.07 392.329C1267 392.329 1264.28 389.489 1264.28 385.624C1264.28 381.773 1267 378.92 1271.07 378.92ZM1288.02 379.262V382.312H1283.41V386.965C1283.41 388.556 1284.25 389.134 1285.32 389.134C1286.13 389.134 1287.01 388.727 1287.71 388.306L1288.97 390.988C1287.85 391.75 1286.56 392.329 1284.75 392.329C1281.6 392.329 1279.98 390.541 1279.98 387.241V382.312H1277.52V379.262H1279.98V375.476H1283.41V379.262H1288.02ZM1294.49 379.262V392H1291.05V379.262H1294.49ZM1292.75 372.887C1293.99 372.887 1294.95 373.859 1294.95 375.095C1294.95 376.331 1293.99 377.277 1292.75 377.277C1291.51 377.277 1290.57 376.331 1290.57 375.095C1290.57 373.859 1291.51 372.887 1292.75 372.887ZM1304.18 378.92C1308.15 378.92 1311.08 381.786 1311.08 385.624C1311.08 389.463 1308.15 392.329 1304.18 392.329C1300.22 392.329 1297.3 389.463 1297.3 385.624C1297.3 381.786 1300.22 378.92 1304.18 378.92ZM1304.18 382.115C1302.24 382.115 1300.8 383.561 1300.8 385.624C1300.8 387.688 1302.24 389.134 1304.18 389.134C1306.11 389.134 1307.57 387.688 1307.57 385.624C1307.57 383.561 1306.11 382.115 1304.18 382.115ZM1320.96 378.92C1323.86 378.92 1325.92 380.932 1325.92 383.889V392H1322.49V384.994C1322.49 383.153 1321.57 382.141 1320 382.141C1318.53 382.141 1317.31 383.101 1317.31 385.02V392H1313.88V379.262H1317.22V380.761C1318.13 379.407 1319.52 378.92 1320.96 378.92ZM1343.06 378.92C1346.58 378.92 1349.24 381.799 1349.24 385.624C1349.24 389.45 1346.58 392.329 1343.07 392.329C1341.36 392.329 1340.15 391.658 1339.33 390.672V397.258H1335.91V379.262H1339.26V380.669C1340.09 379.63 1341.31 378.92 1343.06 378.92ZM1342.43 382.115C1340.48 382.115 1339.15 383.613 1339.15 385.624C1339.15 387.636 1340.48 389.134 1342.43 389.134C1344.45 389.134 1345.71 387.57 1345.71 385.624C1345.71 383.679 1344.45 382.115 1342.43 382.115ZM1358.12 378.92C1362.09 378.92 1365.02 381.786 1365.02 385.624C1365.02 389.463 1362.09 392.329 1358.12 392.329C1354.16 392.329 1351.24 389.463 1351.24 385.624C1351.24 381.786 1354.16 378.92 1358.12 378.92ZM1358.12 382.115C1356.19 382.115 1354.74 383.561 1354.74 385.624C1354.74 387.688 1356.19 389.134 1358.12 389.134C1360.05 389.134 1361.51 387.688 1361.51 385.624C1361.51 383.561 1360.05 382.115 1358.12 382.115ZM1371.25 379.262V392H1367.82V379.262H1371.25ZM1369.52 372.887C1370.75 372.887 1371.71 373.859 1371.71 375.095C1371.71 376.331 1370.75 377.277 1369.52 377.277C1368.28 377.277 1367.34 376.331 1367.34 375.095C1367.34 373.859 1368.28 372.887 1369.52 372.887ZM1381.94 378.92C1384.83 378.92 1386.9 380.932 1386.9 383.889V392H1383.47V384.994C1383.47 383.153 1382.55 382.141 1380.98 382.141C1379.51 382.141 1378.29 383.101 1378.29 385.02V392H1374.86V379.262H1378.2V380.761C1379.1 379.407 1380.5 378.92 1381.94 378.92ZM1399.5 379.262V382.312H1394.89V386.965C1394.89 388.556 1395.73 389.134 1396.79 389.134C1397.61 389.134 1398.49 388.727 1399.19 388.306L1400.45 390.988C1399.33 391.75 1398.04 392.329 1396.23 392.329C1393.07 392.329 1391.46 390.541 1391.46 387.241V382.312H1389V379.262H1391.46V375.476H1394.89V379.262H1399.5Z" fill="black"/>
<defs>
<filter id="filter0_d_2114_26958" x="574.041" y="1006" width="1255.92" height="133.919" filterUnits="userSpaceOnUse" color-interpolation-filters="sRGB">
<feFlood flood-opacity="0" result="BackgroundImageFix"/>
<feColorMatrix in="SourceAlpha" type="matrix" values="0 0 0 0 0 0 0 0 0 0 0 0 0 0 0 0 0 0 127 0" result="hardAlpha"/>
<feOffset dy="9.95945"/>
<feGaussianBlur stdDeviation="4.97973"/>
<feComposite in2="hardAlpha" operator="out"/>
<feColorMatrix type="matrix" values="0 0 0 0 0 0 0 0 0 0 0 0 0 0 0 0 0 0 0.25 0"/>
<feBlend mode="normal" in2="BackgroundImageFix" result="effect1_dropShadow_2114_26958"/>
<feBlend mode="normal" in="SourceGraphic" in2="effect1_dropShadow_2114_26958" result="shape"/>
</filter>
<linearGradient id="paint0_linear_2114_26958" x1="1202" y1="1006" x2="1201.07" y2="1200.11" gradientUnits="userSpaceOnUse">
<stop stop-color="#E4EBF4"/>
<stop offset="0.690998" stop-color="#E4EBF4"/>
</linearGradient>
<radialGradient id="paint1_radial_2114_26958" cx="0" cy="0" r="1" gradientUnits="userSpaceOnUse" gradientTransform="translate(1724.75 206.408) rotate(90) scale(256.936 255.936)">
<stop stop-color="white" stop-opacity="0.75"/>
<stop offset="1" stop-color="white" stop-opacity="0"/>
</radialGradient>
<radialGradient id="paint2_radial_2114_26958" cx="0" cy="0" r="1" gradientUnits="userSpaceOnUse" gradientTransform="translate(1724.75 205.82) rotate(90) scale(215.005 214.915)">
<stop stop-color="white" stop-opacity="0.75"/>
<stop offset="1" stop-color="white" stop-opacity="0"/>
</radialGradient>
<radialGradient id="paint3_radial_2114_26958" cx="0" cy="0" r="1" gradientUnits="userSpaceOnUse" gradientTransform="translate(1724.75 205.821) rotate(90) scale(175.751 173.894)">
<stop stop-color="white" stop-opacity="0.75"/>
<stop offset="1" stop-color="white" stop-opacity="0"/>
</radialGradient>
</defs>
</svg>
